<svg xmlns="http://www.w3.org/2000/svg" width="39.111" height="39.111" viewBox="0 0 39.111 39.111"><defs><style>.a{fill:#d9e6ed;}</style></defs><path class="a" d="M7.875,49.129a11.969,11.969,0,0,1,6.609-8.355,77.01,77.01,0,0,1,4.426,6.9A44.473,44.473,0,0,1,7.875,49.129Zm19.59-6.478a11.889,11.889,0,0,0-10.7-2.671,64.216,64.216,0,0,1,4.452,6.984A13.533,13.533,0,0,0,27.465,42.651ZM12.231,60.984a11.909,11.909,0,0,0,11.987,1.571,49.255,49.255,0,0,0-2.549-9.044c-4.81,1.641-8.189,4.924-9.437,7.473Zm8.625-9.446c-.3-.681-.629-1.353-.969-2.025A43.687,43.687,0,0,1,7.63,51.206c0,.122-.009.244-.009.367a11.91,11.91,0,0,0,3.064,7.979A18.506,18.506,0,0,1,20.856,51.538ZM23.9,52.961a51.016,51.016,0,0,1,2.313,8.5,11.944,11.944,0,0,0,5.116-8A17.408,17.408,0,0,0,23.9,52.961Zm-1.772-4.225c.419.856.725,1.554,1.048,2.34a27.806,27.806,0,0,1,8.311.384,11.817,11.817,0,0,0-2.7-7.429A15.974,15.974,0,0,1,22.131,48.736ZM39.111,36.19v30.73a4.192,4.192,0,0,1-4.19,4.19H4.19A4.192,4.192,0,0,1,0,66.921V36.19A4.192,4.192,0,0,1,4.19,32h30.73A4.192,4.192,0,0,1,39.111,36.19ZM33.524,51.556A13.968,13.968,0,1,0,19.556,65.524,13.987,13.987,0,0,0,33.524,51.556Z" transform="translate(0 -32)"/></svg>