<svg xmlns="http://www.w3.org/2000/svg" width="38.567" height="37.603" viewBox="0 0 38.567 37.603"><defs><style>.a{fill:#d9e6ed;}</style></defs><path class="a" d="M12.9,38.278c0,.156-.179.28-.4.28-.257.023-.435-.1-.435-.28,0-.156.179-.28.4-.28C12.7,37.975,12.9,38.1,12.9,38.278Zm-2.418-.35c-.054.156.1.334.334.381a.365.365,0,0,0,.482-.156c.047-.156-.1-.334-.334-.4a.4.4,0,0,0-.482.179Zm3.437-.132c-.225.054-.381.2-.358.381.023.156.225.257.459.2s.381-.2.358-.358S14.144,37.773,13.918,37.8ZM19.035,8A18.645,18.645,0,0,0,0,26.972a19.494,19.494,0,0,0,13.18,18.6c1,.179,1.345-.435,1.345-.941,0-.482-.023-3.141-.023-4.774,0,0-5.443,1.166-6.586-2.317,0,0-.886-2.263-2.162-2.846,0,0-1.781-1.221.124-1.2a4.1,4.1,0,0,1,3,2.006,4.11,4.11,0,0,0,5.668,1.625,4.322,4.322,0,0,1,1.244-2.62C11.446,34.025,7.06,33.4,7.06,25.915A5.893,5.893,0,0,1,8.9,21.335a7.346,7.346,0,0,1,.2-5.28c1.625-.505,5.365,2.1,5.365,2.1a18.369,18.369,0,0,1,9.766,0s3.74-2.613,5.365-2.1a7.343,7.343,0,0,1,.2,5.28,6.044,6.044,0,0,1,2.006,4.58c0,7.5-4.58,8.1-8.926,8.592A4.6,4.6,0,0,1,24.2,38.115c0,2.62-.023,5.863-.023,6.5,0,.505.358,1.12,1.345.941A19.315,19.315,0,0,0,38.567,26.972C38.567,16.188,29.819,8,19.035,8ZM7.558,34.818c-.1.078-.078.257.054.4.124.124.3.179.4.078.1-.078.078-.257-.054-.4C7.838,34.771,7.659,34.717,7.558,34.818Zm-.84-.63c-.054.1.023.225.179.3a.231.231,0,0,0,.334-.054c.054-.1-.023-.225-.179-.3C6.9,34.087,6.773,34.11,6.718,34.188Zm2.519,2.768c-.124.1-.078.334.1.482.179.179.4.2.505.078.1-.1.054-.334-.1-.482C9.572,36.855,9.338,36.832,9.237,36.956Zm-.886-1.143c-.124.078-.124.28,0,.459s.334.257.435.179a.355.355,0,0,0,0-.482C8.678,35.79,8.475,35.712,8.351,35.813Z" transform="translate(0 -8)"/></svg>