<svg xmlns="http://www.w3.org/2000/svg" width="39.111" height="39.111" viewBox="0 0 39.111 39.111"><defs><style>.a{fill:#d9e6ed;}</style></defs><path class="a" d="M36.317,32H2.785A2.806,2.806,0,0,0,0,34.82V68.291a2.806,2.806,0,0,0,2.785,2.82H36.317a2.813,2.813,0,0,0,2.794-2.82V34.82A2.813,2.813,0,0,0,36.317,32Zm-24.5,33.524h-5.8V46.859h5.806V65.524ZM8.922,44.31a3.361,3.361,0,1,1,3.361-3.361A3.363,3.363,0,0,1,8.922,44.31ZM33.55,65.524h-5.8V56.444c0-2.165-.044-4.95-3.012-4.95-3.021,0-3.483,2.357-3.483,4.793v9.237h-5.8V46.859h5.561v2.549H21.1A6.106,6.106,0,0,1,26.592,46.4c5.867,0,6.958,3.867,6.958,8.9Z" transform="translate(0 -32)"/></svg>