<svg xmlns="http://www.w3.org/2000/svg" width="20.375" height="12.731" viewBox="0 0 20.375 12.731"><defs><style>.a{fill:#d9e6ed;}</style></defs><g transform="translate(0.028 -0.693)"><g transform="translate(-0.028 0.693)"><path class="a" d="M14.864,11.355H1.9A.926.926,0,1,1,1.9,9.5H14.864a.926.926,0,0,1,0,1.852Z" transform="translate(-0.972 -4.064)"/><g transform="translate(7.82)"><path class="a" d="M6.709,7.985a.924.924,0,0,1-.673-.29L.891,2.256A.926.926,0,0,1,2.237.983L7.382,6.422a.926.926,0,0,1-.673,1.563Z" transform="translate(-0.638 -0.693)"/><path class="a" d="M1.564,16.794a.926.926,0,0,1-.673-1.563l5.145-5.44a.926.926,0,0,1,1.346,1.273L2.237,16.5A.924.924,0,0,1,1.564,16.794Z" transform="translate(-0.638 -4.063)"/></g><g transform="translate(13.377)"><path class="a" d="M6.709,7.985a.924.924,0,0,1-.673-.29L.891,2.256A.926.926,0,0,1,2.237.983L7.382,6.422a.926.926,0,0,1-.673,1.563Z" transform="translate(-0.638 -0.693)"/><path class="a" d="M1.564,16.794a.926.926,0,0,1-.673-1.563l5.145-5.44a.926.926,0,0,1,1.346,1.273L2.237,16.5A.924.924,0,0,1,1.564,16.794Z" transform="translate(-0.638 -4.063)"/></g></g></g></svg>