<svg xmlns="http://www.w3.org/2000/svg" width="40.506" height="32.899" viewBox="0 0 40.506 32.899"><defs><style>.a{fill:#d9e6ed;}</style></defs><path class="a" d="M36.343,56.281c.026.36.026.72.026,1.08,0,10.975-8.353,23.62-23.62,23.62A23.46,23.46,0,0,1,0,77.254a17.174,17.174,0,0,0,2,.1A16.626,16.626,0,0,0,12.311,73.81a8.316,8.316,0,0,1-7.762-5.757,10.469,10.469,0,0,0,1.568.128A8.78,8.78,0,0,0,8.3,67.9a8.3,8.3,0,0,1-6.657-8.148v-.1A8.361,8.361,0,0,0,5.4,60.7a8.314,8.314,0,0,1-2.57-11.1,23.6,23.6,0,0,0,17.118,8.687,9.372,9.372,0,0,1-.206-1.9A8.31,8.31,0,0,1,34.107,50.7a16.345,16.345,0,0,0,5.269-2,8.279,8.279,0,0,1-3.65,4.575,16.643,16.643,0,0,0,4.781-1.285A17.846,17.846,0,0,1,36.343,56.281Z" transform="translate(0 -48.082)"/></svg>